<svg width="31" height="16" viewBox="0 0 31 16" fill="none" xmlns="http://www.w3.org/2000/svg">
<path d="M2.738 4.45982C2.76913 4.40941 2.76764 4.29047 2.69203 4.31063L2.61943 4.5082L2.738 4.45982Z" fill="#7C7F9D"/>
<path d="M2.28994 4.06543C2.19506 4.15817 2.07795 4.32348 2.11353 4.50896C2.21879 4.32147 2.23066 4.40208 2.34481 4.17829C2.42042 4.15813 2.46488 4.24885 2.44413 4.32143C2.47526 4.27103 2.55236 4.37083 2.60425 4.24784C2.52568 4.08857 2.40711 4.0765 2.26924 4.19848C2.24848 4.15311 2.27957 4.10273 2.28994 4.06543Z" fill="#7C7F9D"/>
<path d="M3.64893 7.05884L3.64749 7.01993C3.64016 7.03489 3.64159 7.04787 3.64893 7.05884Z" fill="#7C7F9D"/>
<path d="M6.27271 9.47194C6.24575 9.45667 6.2143 9.46178 6.19184 9.47298C6.22778 9.48113 6.25773 9.48721 6.27271 9.47194Z" fill="#7C7F9D"/>
<path d="M6.49536 10.0085C6.49242 9.99648 6.48651 9.98743 6.48356 9.97641C6.47325 9.99745 6.47179 10.0125 6.49536 10.0085Z" fill="#7C7F9D"/>
<path d="M3.64883 7.0593V7.16139C3.72912 7.12499 3.66816 7.09873 3.64883 7.0593Z" fill="#7C7F9D"/>
<path d="M1.26146 4.50032C1.28669 4.49225 1.30892 4.47411 1.33118 4.4509C1.3104 4.45897 1.28963 4.46504 1.26886 4.46908C1.26589 4.47917 1.26295 4.48821 1.26146 4.50032Z" fill="#7C7F9D"/>
<path d="M2.26306 6.11789L2.24075 6.09866C2.20801 6.10676 2.16927 6.11889 2.12759 6.13306L2.26306 6.11789Z" fill="#7C7F9D"/>
<path d="M1.31513 5.33265C1.32699 5.35584 1.53307 5.25809 1.62646 5.21979C1.53307 5.25205 1.47967 5.25911 1.44557 5.25104C1.40851 5.2712 1.36553 5.29737 1.31513 5.33265Z" fill="#7C7F9D"/>
<path d="M1.00044 3.79584L1.04468 3.77481C1.03289 3.78082 1.01517 3.78683 1.00044 3.79584Z" fill="#7C7F9D"/>
<path d="M2.87744 6.71317C2.84958 6.73012 2.82759 6.74607 2.81585 6.75704C2.84079 6.74407 2.86131 6.72912 2.87744 6.71317Z" fill="#7C7F9D"/>
<path d="M28.2418 0.649803C28.2534 0.658679 28.2621 0.663583 28.2722 0.671473C28.2606 0.654707 28.2505 0.644872 28.2418 0.649803Z" fill="#7C7F9D"/>
<path d="M30.3613 0.473236L30.3524 0.491422C30.3822 0.516724 30.4119 0.542024 30.4417 0.565301L30.3613 0.473236Z" fill="#7C7F9D"/>
<path d="M7.12146 10.8731C7.12146 10.8702 7.12146 10.8702 7.12146 10.8683C7.07791 10.8616 7.09477 10.8702 7.12146 10.8731Z" fill="#7C7F9D"/>
<path d="M16.4927 13.0427C16.2273 13.0488 16.3623 12.8099 16.0391 12.8492C16.134 12.8714 16.2777 13.0962 16.4927 13.0427Z" fill="#7C7F9D"/>
<path d="M1.22424 4.47612C1.20371 4.47712 1.18462 4.47709 1.16409 4.4751C1.19049 4.48108 1.20958 4.4821 1.22424 4.47612Z" fill="#7C7F9D"/>
<path d="M16.0386 12.8492L16.0371 12.8481L16.0066 12.8531C16.0197 12.8511 16.027 12.8501 16.0386 12.8492Z" fill="#7C7F9D"/>
<path d="M9.26728 12.4737C9.29693 12.4515 9.31475 12.4294 9.33105 12.4092C9.31178 12.4213 9.29248 12.4384 9.26728 12.4737Z" fill="#7C7F9D"/>
<path d="M8.02664 11.0804L8.03854 11.1258C8.0415 11.1035 8.03555 11.0904 8.02664 11.0804Z" fill="#7C7F9D"/>
<path d="M10.3292 12.9591C10.3352 12.9846 10.3158 13.005 10.3697 13.0131C10.3771 13.005 10.3816 12.9989 10.3846 12.9927C10.3487 12.9999 10.3217 12.9958 10.3292 12.9591Z" fill="#7C7F9D"/>
<path d="M11.1579 13.6221C11.1683 13.61 11.1727 13.5989 11.1816 13.5878C11.1698 13.5827 11.1564 13.5777 11.1445 13.5726L11.1579 13.6221Z" fill="#7C7F9D"/>
<path d="M25.5236 2.58828C25.5935 2.60749 25.6619 2.63578 25.7273 2.6651C25.5845 2.59129 25.6708 2.46695 25.5236 2.58828Z" fill="#7C7F9D"/>
<path d="M1.27024 4.40448C1.25838 4.44682 1.24503 4.46798 1.22428 4.47605C1.2391 4.47504 1.25393 4.47203 1.26728 4.46901C1.27469 4.44381 1.27766 4.4196 1.27024 4.40448Z" fill="#7C7F9D"/>
<path d="M11.8713 12.1196L11.9739 12.241C11.956 12.2015 11.9174 12.157 11.8713 12.1196Z" fill="#7C7F9D"/>
<path d="M19.5377 7.40693L19.5421 7.36905C19.526 7.37703 19.523 7.38898 19.5377 7.40693Z" fill="#7C7F9D"/>
<path d="M12.3896 12.5354C12.3449 12.593 12.3316 12.6355 12.3316 12.6708C12.3524 12.6668 12.3702 12.6648 12.3955 12.6546L12.3896 12.5354Z" fill="#7C7F9D"/>
<path d="M25.7286 2.6664C25.7271 2.6664 25.7272 2.66486 25.7272 2.66486L25.7286 2.6664Z" fill="#7C7F9D"/>
<path d="M26.2554 1.72543C26.1115 1.81725 26.4187 1.92424 26.5226 2.03524C26.4232 2.19265 26.2748 1.97164 26.0982 1.92926C26.0566 2.04126 26.1916 2.24007 26.107 2.28548C26.0625 2.26328 26.0344 2.2643 26.0032 2.2199C26.0789 2.41768 25.693 2.44996 25.8043 2.69314C25.7746 2.68608 25.7494 2.67598 25.7287 2.66589C25.8667 2.72946 25.9913 2.80615 26.0729 2.86568C26.0165 2.91109 26.1115 3.04329 25.9334 2.95752C25.975 2.93431 25.9156 2.89089 25.8844 2.8475L25.8889 2.93629C25.61 2.83134 25.8978 2.82431 25.7331 2.71634C25.6811 2.85156 25.7242 3.07353 25.5654 3.09976C25.3265 2.97262 25.7123 2.89491 25.3918 2.85859L25.6218 2.80813C25.1647 2.66384 25.7346 2.75971 25.2642 2.59322C25.0075 2.69009 25.1588 2.82027 24.9021 2.91613C24.9808 3.02511 25.0965 3.02207 25.1766 3.13105C25.1247 3.46605 24.405 2.93023 24.503 3.26423C24.5994 3.3954 24.8605 3.58614 24.5727 3.59724L24.3693 3.4045C24.1616 3.52558 24.6276 3.70823 24.267 3.74456C24.2017 3.65778 24.3264 3.58616 24.2685 3.58817C23.945 3.55689 24.3233 3.74256 24.2299 3.81319L23.9865 3.68908C23.8292 3.85759 23.7714 4.11284 23.6066 4.30254C23.5503 4.25309 23.5161 4.18246 23.3974 4.17843C23.246 4.45289 22.8053 4.60227 22.412 4.72335L22.513 4.91506C22.4877 4.93121 22.3809 4.89588 22.3675 4.85451C22.1939 4.88882 22.4877 4.93118 22.5189 5.01493C22.4773 5.0674 22.3319 5.00787 22.3067 4.94531C22.3037 5.18345 22.1865 5.55077 21.7903 5.577L21.765 5.51443C21.5424 5.58304 22.0203 5.87467 21.7027 5.87567L21.6923 5.83527C21.3005 6.03506 21.1685 6.41851 20.6313 6.44474C20.885 6.63949 20.2054 6.62537 20.6017 6.86048C20.2292 6.89681 20.2039 6.81711 19.8329 6.95232C19.7513 6.99773 20.0006 7.17028 19.9695 7.26109L19.7498 7.15009L19.876 7.36096L19.5584 7.27622L19.5435 7.36904C19.5851 7.34987 19.7024 7.36499 19.7617 7.40132C19.7498 7.55166 19.3373 7.56784 19.2201 7.51335C19.1934 7.62334 19.1696 7.73535 19.1459 7.84735C19.0628 7.79791 19.0746 7.74137 19.0523 7.68082C19.1399 7.92299 18.7941 7.58802 18.8758 7.81001C18.9425 7.81909 18.999 7.88468 19.0405 7.90889C18.8447 7.90082 18.7007 8.035 18.6517 8.16214L18.5182 8.0673C18.2897 8.22874 18.1857 8.48003 17.9765 8.68386C18.1234 8.64451 18.3742 8.78976 18.3401 8.86241L18.0789 8.77264C18.1873 8.88162 18.2317 8.75346 18.3312 8.91794C18.2273 8.9805 18.0091 8.84026 17.9765 8.75954L17.9647 8.89168C17.8875 8.86343 17.8727 8.82408 17.7881 8.77565C17.8979 8.88362 17.3859 8.8241 17.5877 8.99968L17.512 8.9714C17.3028 9.17522 17.2909 9.30643 17.1336 9.47898C17.3369 9.57685 17.2256 9.62124 17.3458 9.74838C17.1603 9.84121 16.8635 9.90581 16.7359 10.0632C16.7389 10.2146 16.8844 10.1732 16.963 10.2751C16.7642 10.1984 16.638 10.3548 16.5756 10.2166C16.4362 10.4103 16.3887 10.4618 16.3338 10.7594C16.4347 10.7685 16.4955 10.7554 16.5475 10.7988C16.5415 10.8543 16.3798 10.8583 16.2923 10.8129L16.2818 10.7937C16.3367 11.1742 15.1703 11.152 15.3855 11.5273L15.3767 11.5072L15.3989 11.8099C15.2787 11.8957 15.3039 11.6898 15.1184 11.714C15.2416 12.0803 14.7489 12.0641 14.7994 12.3447C14.0841 12.2619 14.3883 12.8926 13.8482 12.9521L13.9966 12.9935C14.0886 13.0974 13.8645 13.0268 13.8007 13.054C13.912 13.0893 13.9728 13.0439 14.0203 13.1055C13.9951 13.1691 13.9609 13.2296 13.9194 13.2891L13.8868 13.3325L13.8571 13.3699C13.8511 13.3769 13.8422 13.383 13.8333 13.389C13.7947 13.4153 13.7399 13.4284 13.6894 13.4213C13.584 13.4122 13.5083 13.3063 13.4935 13.2225C13.5039 13.2801 13.5098 13.3164 13.5143 13.3456C13.5276 13.4294 13.5425 13.5394 13.5529 13.6312C13.5633 13.724 13.5677 13.8017 13.5617 13.8249C13.5558 13.8481 13.5351 13.8148 13.5128 13.6988C13.5143 13.5979 13.5128 13.495 13.5054 13.387C13.5039 13.4778 13.4831 13.506 13.4609 13.5101C13.4386 13.5141 13.4179 13.494 13.3986 13.4738C13.357 13.4304 13.3466 13.4052 13.1952 13.4425C13.2472 13.4132 13.305 13.3668 13.311 13.3729C13.3718 13.3093 13.3704 13.3063 13.3273 13.3194C13.2383 13.2972 13.1106 13.2941 13.0453 13.3335C13.0053 13.281 13.1522 13.2538 13.1849 13.1872C13.2057 13.0712 12.7872 13.158 12.9103 13.0318C12.9296 13.0106 12.9845 13.0177 13.0098 13.0217C12.8821 13.0278 12.802 12.828 12.661 12.9743C12.618 12.8159 12.3227 12.8189 12.3271 12.6696C12.0481 12.7352 12.1995 12.4294 11.8805 12.5828C12.1966 12.4133 11.8953 12.2528 11.6668 12.2679C11.7885 12.2367 11.6905 12.154 11.8523 12.1065C11.7529 12.0319 11.6074 11.9945 11.4665 12.0985C11.6594 11.7453 10.815 11.9824 11.1889 11.6323C10.7408 11.4971 10.3653 11.3487 10.0403 11.1822C10.3579 11.0157 10.352 11.3941 10.6651 11.2014C10.2971 11.0783 9.89345 11.1136 9.73021 10.8765C9.71092 10.8018 9.8994 10.8291 9.9736 10.8169C9.60707 10.6918 9.53732 10.4214 9.15743 10.3397C9.18711 10.3235 9.24203 10.3255 9.28655 10.3296C9.23461 10.3003 9.23461 10.2236 9.09809 10.3064L9.1767 10.3185C9.03869 10.488 8.58315 10.4204 8.46741 10.4749C8.94227 10.3074 8.35904 10.2448 8.9823 10.0521C8.92887 10.044 8.82646 10.0531 8.73891 10.1106C8.72555 10.0612 8.76713 10.0198 8.91701 9.99458C8.68997 9.91386 8.5935 10.041 8.45994 9.92699C8.52821 9.88965 8.58311 9.8967 8.67659 9.86441C8.47478 9.88157 8.27302 9.89873 8.21663 9.77159C8.26411 9.75443 8.30564 9.71306 8.33829 9.74232C8.12163 9.58996 7.64822 9.66061 7.56066 9.40936C7.92275 9.29735 7.5859 9.29429 7.83224 9.14192L7.63935 9.08748L7.56066 9.19543C7.46421 9.10865 7.18674 9.1369 7.18526 9.01682L7.36626 9.02086L7.12888 8.88867L7.1378 9.03298C6.90185 9.02088 6.82167 9.22166 6.75935 9.0693C6.81277 9.07737 6.66144 8.98253 6.76087 8.85438C6.76087 8.85438 6.76083 8.85438 6.76232 8.85438C6.63025 8.85741 6.49222 8.86141 6.48183 8.76353C6.54564 8.70198 6.78312 8.62028 6.82615 8.57891C6.56053 8.65661 6.53085 8.41238 6.23852 8.48604C6.31271 8.47393 6.45069 8.40031 6.47147 8.37912L6.25482 8.44066C6.26521 8.37003 6.28446 8.34986 6.40169 8.29739C6.29336 8.16116 6.11683 8.51431 6.09309 8.29635C6.1198 8.29938 6.14053 8.2802 6.19395 8.28827C6.10046 8.10664 5.75921 8.07638 5.69392 7.89879C5.91057 7.71817 5.89124 7.97751 6.06041 7.81405C5.7933 7.65159 5.2917 7.59508 5.14034 7.37914L5.15077 7.42856C4.75159 7.60313 5.17452 7.19448 4.89405 7.1965C4.94747 7.20457 5.13445 7.11576 5.08549 7.13191C4.99942 6.9745 4.69812 6.92505 4.36126 6.79791L4.48444 6.77066C4.48444 6.65159 4.30789 6.55072 4.2604 6.4478C4.13723 6.47504 4.10158 6.42053 3.99325 6.52244C4.25442 5.98664 3.16079 6.20763 3.36409 5.74851C3.39525 5.77374 3.51844 5.76669 3.49618 5.7455L3.1949 5.60523C3.04947 5.70614 3.1237 5.68193 3.04209 5.78788C2.91892 5.81512 2.78386 5.80202 2.73044 5.7556C2.93374 5.78285 2.99011 5.61732 3.04056 5.53256C2.99753 5.56485 2.92929 5.58102 2.88181 5.61129C3.05988 5.36105 2.53604 5.76769 2.57908 5.53157L2.67255 5.49324C2.57164 5.466 2.40692 5.48012 2.36982 5.41352C2.53305 5.29244 2.51826 5.42057 2.67704 5.34287C2.58058 5.27325 2.15023 5.38124 2.26004 5.21373C2.34908 5.21878 2.40251 5.26417 2.49155 5.26921C2.62807 5.0785 2.56278 5.0997 2.53459 5.02503L2.53604 5.03311L2.49155 4.85249L2.46778 4.91708C1.86827 5.07954 2.16057 4.77076 1.69313 4.81214C2.13831 4.77682 1.89351 4.74047 2.11759 4.63856C2.13985 4.57499 2.1502 4.49021 2.22736 4.47306C1.98697 4.50232 2.24967 4.30155 1.90094 4.34796C1.96623 4.30861 1.83558 4.27933 2.02405 4.20365C1.88159 4.1532 1.92465 4.28439 1.83116 4.32274C1.46017 4.32375 1.79856 3.88987 1.27917 3.88281C1.12781 3.84144 0.985291 3.84445 0.8458 3.84748L0.624729 4.12393C0.712282 4.05229 0.796877 3.9817 0.930431 3.93932C1.0076 4.03821 0.836887 4.1502 0.836887 4.1502C0.967476 4.24404 1.07585 4.23291 1.21534 4.17237C1.18269 4.22282 1.20646 4.26723 1.2391 4.33584C1.34743 4.32575 1.33256 4.12499 1.46315 4.21883C1.43198 4.28341 1.39045 4.38729 1.33257 4.44985C1.46316 4.40142 1.59816 4.29752 1.7332 4.2511C1.75694 4.35503 1.63826 4.40245 1.58632 4.46804C1.7362 4.42868 1.9736 4.39336 2.03593 4.23292L1.9484 4.17035C2.00182 4.1653 1.96024 4.31165 1.91869 4.3389C1.78068 4.45998 1.74512 4.27331 1.74363 4.21479L1.84007 4.18148C1.7822 3.83134 1.46315 4.21882 1.28062 4.18956L1.38453 3.94233L1.1723 4.14113C1.13817 4.07352 1.12631 3.93222 1.22128 3.89892C1.10108 3.76875 1.09362 3.98271 0.994194 3.83842C0.983807 3.81622 0.991236 3.80409 1.00311 3.79501L0.865147 3.86364C0.896309 3.81218 0.862141 3.68503 0.937822 3.72539C0.836914 3.65274 0.743452 3.68401 0.66777 3.71933L-5.72205e-06 4.02608L0.369459 4.09368C0.473335 4.11285 0.568304 4.11791 0.477783 4.20469L0.448149 4.20365C0.744938 4.32777 0.684101 4.10881 1.08477 4.10881L0.649944 4.4741L0.88587 4.37925C0.897741 4.40145 0.923021 4.44585 0.828049 4.4842C1.05212 4.47511 0.909634 4.42364 1.09216 4.39034C0.992735 4.58004 1.45424 4.58305 1.13223 4.78184C1.33108 4.72735 1.16487 4.63253 1.38301 4.66684C1.04318 4.8858 1.56701 4.7415 1.48836 4.909C1.27022 4.98367 1.28659 4.85654 1.20498 5.02405C1.5819 4.90397 1.30884 5.21576 1.44684 5.25108C1.70653 5.1199 1.71841 5.34084 1.9321 5.40845C1.83712 5.44679 2.03153 5.69404 2.05825 5.84641L2.01224 5.86557C2.29419 5.74953 2.36836 5.88272 2.51082 5.93317C2.35352 6.01188 2.27637 6.03003 2.15766 6.02398L2.24222 6.09764C2.34461 6.0714 2.41435 6.07141 2.49894 6.1037L2.28526 6.18745C2.40843 6.28029 2.73789 6.26514 2.75421 6.45888C2.94267 6.37009 3.14003 6.09361 3.41307 6.16223C3.32107 6.21873 3.16077 6.31158 3.08063 6.29846C3.10586 6.3035 3.20829 6.29643 3.19345 6.34083L2.96934 6.37414C2.9634 6.47 3.13998 6.33174 3.17708 6.38522C3.03758 6.45787 3.11776 6.47201 2.99905 6.52347C2.97233 6.51843 3.01089 6.45283 2.93521 6.46494C2.96934 6.52952 2.95897 6.63549 2.87884 6.71218C2.95304 6.66576 3.0658 6.61327 3.12664 6.64152C3.24981 6.73436 2.99904 6.76361 2.9931 6.85846C3.11627 6.83122 3.08805 6.94628 3.29729 6.83831C3.32845 6.86757 3.23942 6.92405 3.1949 6.96543C3.3433 6.96744 3.4947 7.18744 3.64755 7.01287V6.99169C3.65497 6.99169 3.65788 6.99469 3.6653 6.99469C4.063 7.05019 3.94725 7.40035 4.22475 7.5174L4.15505 7.55469C4.34648 7.61019 4.45478 7.74743 4.68479 7.73734C4.71892 7.7666 4.63879 7.87357 4.54234 7.90485C4.68183 7.95127 4.76788 7.91798 4.78123 8.0875C4.57348 8.07741 4.7056 8.17124 4.6032 8.05823C4.65662 8.18739 4.57351 8.26911 4.88217 8.27112C4.66403 8.33066 4.74562 8.4649 4.85246 8.48205L4.89847 8.34582C4.98454 8.38416 5.02314 8.43764 5.06172 8.49111L4.80058 8.59202C4.75309 8.94317 5.69983 8.68785 5.40749 9.09551C5.63008 9.05918 5.39414 8.92601 5.63899 8.86951C5.71468 8.97748 5.49502 9.25394 5.52915 9.28219C5.54992 9.47694 6.004 9.21358 6.07077 9.39118C6.1331 9.32962 6.33348 9.19341 6.52639 9.2479C6.60356 9.35486 6.31418 9.54857 6.18062 9.52839C6.14797 9.51023 6.1613 9.48603 6.19098 9.47089C6.12569 9.45778 6.04555 9.43861 5.99955 9.52337L6.09606 9.49006C6.06638 9.58087 6.22364 9.70096 6.05447 9.74636C6.21474 9.77159 6.22364 9.70195 6.20584 9.62728C6.22513 9.80891 6.41802 9.81195 6.48183 9.97542C6.50409 9.93102 6.57978 9.86039 6.60204 9.88057C6.71037 10.1116 6.84987 9.87151 7.02795 9.97039C6.98343 10.1066 6.70151 10.1116 6.94933 10.1732C6.9523 10.2933 6.75048 10.3094 6.64957 10.3175C6.93746 10.3387 6.79051 10.5788 6.83651 10.6575L6.70145 10.6363C6.78159 10.6484 6.81427 10.6777 6.8484 10.707L6.97303 10.5829C6.9849 10.6323 7.01908 10.6616 6.94933 10.6989C7.09773 10.6737 7.18968 10.5213 7.41821 10.5082C7.39001 10.599 7.67202 10.5949 7.47466 10.7312C7.3782 10.5495 7.27576 10.8684 7.0962 10.7685C7.14963 10.7766 7.18226 10.8058 7.19562 10.8553C7.17781 10.8734 7.14516 10.8755 7.12142 10.8735C7.09026 11.1166 7.44199 10.7988 7.60522 10.9411C7.46128 10.9915 7.41228 11.1025 7.46719 11.1116C7.4019 11.0541 7.63787 10.9703 7.79369 10.9703C7.80704 11.1126 7.98216 11.0278 8.02816 11.0813L8.00737 11.0026C8.15131 10.9522 8.18986 11.0057 8.30264 11.047C8.2136 11.1056 8.16908 11.0268 8.15424 11.0732C8.45252 11.0228 8.12312 11.3538 8.3843 11.3689C8.3561 11.4597 8.16021 11.5021 8.15279 11.5727C8.44216 11.5919 8.12904 11.7836 8.39763 11.824C8.5208 11.6989 8.47479 11.716 8.73152 11.7059L8.38872 11.5849L8.77311 11.5707C8.70633 11.5132 8.52525 11.5101 8.5119 11.4607C8.7152 11.4425 8.66775 11.4597 8.77014 11.3558C8.61878 11.5707 9.09951 11.4275 9.04164 11.6101L8.63355 11.8361C8.61575 12.0722 9.13221 11.9562 9.24351 12.1872L9.24496 12.0914C9.43342 12.0238 9.39928 12.1852 9.53284 12.2044C9.39186 12.276 9.38594 12.3386 9.33104 12.4102C9.4275 12.3507 9.47798 12.5424 9.76586 12.4042L9.6842 12.5828C9.78362 12.7644 10.2645 12.5223 10.3847 12.6827C10.1888 12.7261 10.1695 12.8411 9.9528 12.8118C10.0062 12.8572 10.0329 12.9118 10.1264 12.8593C10.0745 12.9339 10.4618 12.8795 10.3847 12.9935C10.4678 12.9784 10.6147 12.9037 10.6666 12.9602C10.6458 12.9814 10.5998 12.9985 10.5998 12.9985C10.6666 12.9602 10.7868 13.0247 10.8818 12.8956C10.634 13.275 11.3908 13.2619 11.1816 13.5888C11.3478 13.6605 11.5377 13.7523 11.6579 13.835C11.6104 13.8522 11.5911 13.8734 11.5837 13.8492C11.6119 14.0429 12.0615 13.7008 12.0971 13.9198C11.971 14.1155 11.8879 13.9147 11.8611 14.0055C11.6549 14.1438 11.7187 14.1751 11.8256 14.2064C11.9636 14.2639 12.1209 14.3052 12.1045 14.4687L12.0392 14.4515C12.0481 14.5615 12.1758 14.6049 12.3108 14.6332C12.4473 14.6635 12.5883 14.6776 12.6848 14.7754C12.6848 14.7754 12.6551 14.8047 12.6506 14.839C12.9178 14.7432 13.1715 14.84 13.3466 14.8925C13.2724 15.0691 13.2516 14.942 13.2635 15.1902C13.311 15.2104 13.3125 15.1155 13.3258 15.0257C13.3392 14.9359 13.3629 14.8501 13.4341 14.8733C13.4742 15.0338 13.5915 15.2376 13.6271 15.5211L13.452 15.398C13.4935 15.5958 13.5588 15.6442 13.6167 15.6533C13.676 15.6624 13.7265 15.6311 13.7769 15.6997L13.7829 15.8481C13.8185 15.8703 13.8497 15.8834 13.8749 15.8894C13.8883 15.8925 13.9001 15.8935 13.9105 15.8935C13.9164 15.8925 13.9209 15.8955 13.9253 15.8905C13.9283 15.8794 13.9312 15.8682 13.9357 15.8581C13.9609 15.7714 13.9758 15.6846 13.9892 15.6018C14.0189 15.4353 14.0426 15.288 14.1405 15.1811L14.0871 15.0983C14.0782 14.8612 14.1094 14.8905 14.1524 14.9218C14.194 14.9551 14.2459 14.9914 14.2399 14.8128C14.2993 14.9056 14.3601 14.9964 14.4225 15.0852C14.4418 15.0005 14.4669 14.8461 14.4892 14.6988C14.5115 14.5504 14.5323 14.4102 14.5649 14.3204C14.6688 14.5636 14.5887 14.8582 14.5575 15.1205C14.6377 15.0216 14.8172 14.7542 14.746 14.5928C14.7386 14.6513 14.7489 14.7613 14.6881 14.7603C14.6258 14.4425 14.6273 14.2437 14.7504 14.0954C14.9864 14.2871 15.1125 14.1882 15.2505 14.051C15.2861 14.0167 15.3232 13.9813 15.3589 13.946C15.3915 13.9178 15.4167 13.9016 15.4538 13.8835C15.5235 13.8502 15.6141 13.834 15.7491 13.8552C15.7135 13.5505 16.2032 13.4506 16.3857 13.1832C15.8485 13.0924 16.4376 13.1035 15.9539 12.9329C15.9761 12.8613 16.0029 12.8421 16.0385 12.8481L16.4762 12.7796C16.6499 12.7917 16.5311 12.8774 16.6409 12.9138C16.7893 12.7987 16.8873 12.939 17.0861 12.9037C16.9036 12.8532 16.8858 12.7624 17.0134 12.714L16.7077 12.7301C16.6172 12.4476 17.2361 12.7331 17.1485 12.4506L17.2449 12.5687C17.2375 12.4385 17.5521 12.2276 17.2642 11.9814C17.3325 11.9874 17.4794 12.0187 17.4749 12.0732C17.7316 11.8775 17.5313 11.4133 17.9171 11.3397L18.0136 11.4052C18.018 11.3497 17.8682 11.2417 18.0314 11.2397C18.0744 11.2629 18.1279 11.3053 18.1516 11.2892C18.1338 11.2509 18.0596 11.0955 18.1768 11.0702L18.2585 11.1711C18.6087 11.0238 18.2674 10.71 18.3638 10.4961C18.6903 10.6434 18.9574 10.5243 19.0894 10.4658L19.1325 10.49C19.4159 10.265 19.2809 9.95324 19.3833 9.66768C19.6297 9.67979 19.7855 9.57887 19.9339 9.45779C20.0852 9.33872 20.2307 9.20049 20.4443 9.13793C20.3509 9.14297 20.2025 9.01076 20.2128 8.95627C20.333 8.93609 20.146 8.70401 20.428 8.85537L20.4028 8.87153C20.7292 8.97344 20.7663 8.82913 20.8628 8.75042L20.4977 8.54763C21.2768 8.60514 20.9222 7.88062 21.5395 8.0128C21.5039 7.91291 21.5766 7.84935 21.5395 7.74946L21.7369 7.85642C21.9476 7.73937 22.05 7.68083 22.2073 7.48305L22.3082 7.59406C22.4343 7.50324 21.8808 7.16524 21.9757 7.06736L22.3022 7.19852C22.4981 7.02396 22.9567 6.99268 22.8899 6.67685C22.93 6.70309 23.0071 6.75453 22.9863 6.78884C23.0887 6.71316 23.5562 6.59307 23.1228 6.39833C23.3855 6.54161 23.3602 6.23894 23.3588 6.08354L23.5324 6.20563C23.3826 5.99071 23.3202 5.95035 23.3841 5.80404C23.4404 5.79294 23.5636 5.86859 23.473 5.87464C23.6763 5.84639 23.3751 5.70513 23.6022 5.65972L23.6763 5.76767C23.798 5.68897 23.7253 5.65871 23.6452 5.52955C23.6393 5.43168 23.9019 5.39434 24.0874 5.48112C23.9984 5.40847 23.9197 5.2803 24.034 5.25911C24.1067 5.29039 24.123 5.33178 24.1304 5.35297C24.4406 5.28536 24.1868 5.0109 24.4955 5.02099C24.5593 5.05631 24.5994 5.06844 24.6276 5.07046C24.4777 5.18145 24.3501 5.2672 24.3471 5.25005C24.5192 5.35196 24.6661 5.27832 24.8116 5.49324C24.7745 5.34289 24.6558 5.04926 24.8502 5.00788C24.8724 5.01394 24.8947 5.01896 24.9244 5.03208L24.9318 5.05326C24.9748 5.04317 24.9823 5.01492 24.9763 4.9796C25.0401 4.9675 25.0846 4.96246 25.1232 4.93723C25.2775 5.01291 25.3369 4.88073 25.4037 4.84037C25.2123 4.73038 25.3221 4.69003 25.0936 4.65068C25.1158 4.65169 25.1039 4.67288 25.0728 4.70719C25.0698 4.71728 25.0609 4.72738 25.0668 4.73848C25.0639 4.73444 25.0594 4.73037 25.0549 4.72532C25.0208 4.75761 24.9733 4.799 24.9184 4.84441C24.8709 4.75158 24.8412 4.66579 25.0119 4.67891C24.9229 4.58305 24.8339 4.48215 24.7968 4.43271C25.1396 4.52958 25.4378 4.49728 25.6188 4.58003C25.6989 4.37923 25.9824 4.2158 25.7539 3.91207C25.7613 3.84447 25.9127 3.92919 25.9869 3.94937C25.9899 3.99276 25.9498 4.01699 25.9824 4.06038C25.9987 3.92617 26.2644 3.81214 26.0507 3.6406C26.294 3.61335 26.1946 3.83639 26.3415 3.67898L26.389 3.74352C26.7615 3.73646 26.757 3.53368 26.7734 3.33389C26.7897 3.1341 26.8253 2.93734 27.2749 2.95752C27.217 2.95752 27.1888 2.9575 27.1428 2.9353C27.8284 2.75771 27.919 2.13107 28.7307 2.05337C28.9325 2.012 28.8019 1.899 28.7737 1.76682L28.9889 1.87984L28.9177 1.63463C28.9652 1.39145 29.7145 1.73354 29.6834 1.36019L29.5261 1.29057C29.6433 1.2492 29.7501 1.05343 29.8748 1.16745C29.8614 1.14525 29.7783 1.05445 29.8778 1.07866L29.9757 1.14725L30.0425 0.883901C30.2888 0.824367 30.3897 1.18258 30.6672 1.03526C30.7266 0.94848 30.6673 0.6579 30.5693 0.632674C30.5263 0.652855 30.4105 0.649826 30.314 0.580202L30.3541 0.488363C30.0944 0.268391 29.8807 0.00908142 29.4667 0L29.483 0.223981L29.299 0.153377L29.4207 0.0665636C29.2204 0.0171203 29.2857 0.130161 29.3109 0.220975C29.2263 0.174559 29.1551 0.150346 29.0972 0.149337L29.213 0.44195C29.0853 0.372326 29.0646 0.238139 28.9013 0.256302C28.9547 0.392523 29.2145 0.396555 29.1788 0.529749C28.9785 0.481315 28.8954 0.390471 28.9177 0.524675C28.8331 0.478258 28.8049 0.43385 28.8079 0.388443C28.8168 0.500448 28.6402 0.541854 28.7515 0.677066C28.517 0.608451 28.5333 0.867768 28.2736 0.668986C28.3137 0.731547 28.3508 0.908144 28.2944 0.960614C28.0985 0.645792 28.0169 1.11496 27.7038 0.844534C27.9012 1.11395 27.4945 1.15737 27.4916 1.37936C27.4782 1.35716 27.4486 1.31174 27.4782 1.31275C27.361 1.35613 27.2452 1.31176 27.1295 1.31176C27.361 1.49036 27.2705 1.62253 27.3461 1.77894C26.9989 1.69115 27.1266 1.53374 26.8654 1.40054C27.0687 1.53374 26.8683 1.66996 27.0716 1.75775C26.8401 1.71537 26.9277 1.75875 26.6799 1.64877C26.9722 1.86975 26.6517 1.73856 26.7704 1.91615C26.4944 1.89698 26.4498 1.74159 26.4068 1.89699C26.2436 1.88286 26.2554 1.72543 26.2554 1.72543ZM23.6674 4.3419C23.666 4.3409 23.6645 4.33988 23.6645 4.33988C23.6852 4.31668 23.7046 4.2975 23.715 4.28539C23.7061 4.29649 23.6912 4.31264 23.6674 4.3419ZM23.4196 4.53967C23.4582 4.5205 23.4968 4.49126 23.5354 4.45897C23.6096 4.49126 23.666 4.53868 23.6378 4.55583C23.6081 4.51951 23.5116 4.5427 23.4196 4.53967ZM25.2464 4.91304C25.233 4.95845 25.1825 4.9463 25.1395 4.92713C25.1543 4.91099 25.1707 4.89082 25.187 4.86155C25.1826 4.85651 25.1737 4.84945 25.1692 4.84441C25.2004 4.86963 25.2286 4.89286 25.2464 4.91304Z" fill="#7C7F9D"/>
<path d="M25.0742 4.71119C25.0757 4.70412 25.0712 4.69703 25.0771 4.69098C25.0519 4.68694 25.0311 4.6839 25.0118 4.68289C25.0267 4.69905 25.043 4.7152 25.0564 4.72933C25.0609 4.72226 25.0682 4.71624 25.0742 4.71119Z" fill="#7C7F9D"/>
<path d="M3.64793 7.01346V7.02035C3.65083 7.01246 3.65513 7.00558 3.66528 6.9967C3.65948 7.00361 3.65373 7.00754 3.64793 7.01346Z" fill="#7C7F9D"/>
<path d="M19.6985 7.12466L19.7484 7.15057L19.7249 7.10971L19.6985 7.12466Z" fill="#7C7F9D"/>
<path d="M3.03963 5.53411C3.0543 5.52314 3.0675 5.50921 3.07336 5.49326C3.06163 5.50024 3.05137 5.51616 3.03963 5.53411Z" fill="#7C7F9D"/>
<path d="M2.53308 5.02729L2.52568 4.92114C2.51824 4.9717 2.52416 5.00403 2.53308 5.02729Z" fill="#7C7F9D"/>
<path d="M2.20959 4.60226C2.16957 4.61537 2.14142 4.62849 2.11622 4.63957C2.11622 4.64058 2.11622 4.64056 2.11622 4.64056L2.20959 4.60226Z" fill="#7C7F9D"/>
<path d="M9.28799 10.3306C9.29542 10.3346 9.30283 10.3387 9.31322 10.3397C9.39192 10.3518 9.35036 10.3377 9.28799 10.3306Z" fill="#7C7F9D"/>
<path d="M6.76487 8.8575C6.82286 8.85649 6.87785 8.85546 6.92395 8.86253C6.90165 8.8231 6.87639 8.79683 6.76487 8.8575Z" fill="#7C7F9D"/>
<path d="M11.8607 12.1065C11.8592 12.1076 11.8592 12.1076 11.8576 12.1086C11.8638 12.1128 11.8669 12.117 11.873 12.1212L11.8607 12.1065Z" fill="#7C7F9D"/>
<path d="M7.0162 8.9437C7.01916 8.89151 6.97929 8.87045 6.92468 8.86142C6.94091 8.89454 6.95569 8.93466 7.0162 8.9437Z" fill="#7C7F9D"/>
<path d="M1.8766 4.54523L1.90845 4.5531C1.90845 4.54229 1.91131 4.53343 1.91565 4.52655L1.8766 4.54523Z" fill="#7C7F9D"/>
<path d="M1.91667 4.52713L1.95435 4.50945C1.93842 4.50846 1.92391 4.50942 1.91667 4.52713Z" fill="#7C7F9D"/>
<path d="M2.03748 4.47006L1.95362 4.50978C1.98057 4.51182 2.01352 4.51791 2.03748 4.47006Z" fill="#7C7F9D"/>
<path d="M0.969116 4.42261L0.952829 4.48413C0.958759 4.47103 0.964669 4.45083 0.969116 4.42261Z" fill="#7C7F9D"/>
<path d="M0.688102 4.42669C0.753528 4.44388 0.841283 4.56622 0.937935 4.53185L0.951294 4.48332C0.897764 4.5733 0.762449 4.32558 0.688102 4.42669Z" fill="#7C7F9D"/>
<path d="M0.945312 4.70805L0.860764 4.55182C0.808877 4.61331 0.737697 4.69698 0.654678 4.64859C0.605755 4.92681 0.791133 4.5266 0.945312 4.70805Z" fill="#7C7F9D"/>
<path d="M1.27625 5.15822C1.16324 5.10868 1.1662 5.21686 1.11862 5.23607C1.23609 5.24315 1.26584 5.24416 1.27625 5.15822Z" fill="#7C7F9D"/>
<path d="M4.50684 7.97147L4.32097 8.06142C4.40721 8.09883 4.39085 8.02404 4.50684 7.97147Z" fill="#7C7F9D"/>
<path d="M6.05146 8.00597L6.10352 7.89578L5.91169 7.96046L6.05146 8.00597Z" fill="#7C7F9D"/>
<path d="M5.1565 9.00877L5.10444 9.00067L5.271 9.05123L5.1565 9.00877Z" fill="#7C7F9D"/>
<path d="M10.8413 13.6022L11.0361 13.4637C10.9558 13.4505 10.706 13.583 10.8413 13.6022Z" fill="#7C7F9D"/>
<path d="M14.1685 15.368C14.2398 15.4782 14.3573 15.459 14.3513 15.2679C14.2815 15.3296 14.1863 15.2941 14.1685 15.368Z" fill="#7C7F9D"/>
<path d="M20.8909 8.58903L20.9222 8.66792L20.943 8.55872L20.8909 8.58903Z" fill="#7C7F9D"/>
</svg>
